# xmcd CD database file
#
# Track frame offsets:
#	150
#	28256
#	37168
#	63828
#	82057
#	110904
#	122368
#	134459
#	183002
#	257570
#
# Disc length: 4040 seconds
#
# Revision: 4
# Processed by: cddbd v1.5.2PL0 Copyright (c) Steve Scherf et al.
# Submitted via: CDex 1.70beta2
#
DISCID=8a0fc60a
DTITLE=Eckhart Tolle - Jetzt! Die Kraft der Gegenwart - CD3
DYEAR=2003
DGENRE=Hörbuch
TTITLE0=Alle Probleme Sind Einbildungen Des Verstandes
TTITLE1=Ein Quantensprung In Der Entwicklung Des Bewusstseins
TTITLE2=Die Freude Des Seins
TTITLE3=Kapitel 4 Strategien Des Verstandes Um Die Gegenwart Zu Vermeiden
TTITLE4=Gewöhnliche Unbewusstheit Und Tiefe Unbewusstheit
TTITLE5=Wonach Suchen Sie
TTITLE6=Die Alltägliche Unbewusstheit Auflösen
TTITLE7=Freiheit Vom Unglücklich Sein
TTITLE8=Wo Immer Du Bist - Sei Total Gegenwärtig
TTITLE9=Das Innere Ziel Deiner Lebensreise
EXTD=YEAR: 2003
EXTT0=
EXTT1=
EXTT2=
EXTT3=
EXTT4=
EXTT5=
EXTT6=
EXTT7=
EXTT8=
EXTT9=
PLAYORDER=
